<svg xmlns="http://www.w3.org/2000/svg" xmlns:xlink="http://www.w3.org/1999/xlink"><defs><linearGradient id="paint0_linear_55_522" x1="75.897" y1="226.5" x2="96.897" y2="226.5" gradientUnits="userSpaceOnUse"><stop stop-color="#62EFB4"/><stop offset=".491" stop-color="#26ADEA"/><stop offset="1" stop-color="#FF3C7B"/></linearGradient><linearGradient id="paint1_linear_55_522" x1="15.752" y1="85.838" x2="155.924" y2="85.838" gradientUnits="userSpaceOnUse"><stop stop-color="#62EFB4"/><stop offset=".491" stop-color="#26ADEA"/><stop offset="1" stop-color="#FF3C7B"/></linearGradient><filter id="filter0_f_55_522" x="2.396" y="195" width="168" height="63" filterUnits="userSpaceOnUse" color-interpolation-filters="sRGB"><feFlood flood-opacity="0" result="BackgroundImageFix"/><feBlend in="SourceGraphic" in2="BackgroundImageFix" result="shape"/><feGaussianBlur stdDeviation="10.5" result="effect1_foregroundBlur_55_522"/></filter><linearGradient id="paint0_linear_55_58" x1=".13" y1="27" x2="53.87" y2="27" gradientUnits="userSpaceOnUse"><stop stop-color="#62EFB4"/><stop offset=".491" stop-color="#26ADEA"/><stop offset="1" stop-color="#FF3C7B"/></linearGradient><linearGradient id="paint0_linear_55_56" x1="-101.024" y1="102.314" x2="101.653" y2="102.314" gradientUnits="userSpaceOnUse"><stop stop-color="#62EFB4"/><stop offset=".491" stop-color="#26ADEA"/><stop offset="1" stop-color="#FF3C7B"/></linearGradient><radialGradient id="paint0_radial_55_616" cx="0" cy="0" r="1" gradientUnits="userSpaceOnUse" gradientTransform="matrix(169.56443 76.81937 -172.62136 381.02946 2.003 33.44)"><stop stop-color="#EBF6FF"/><stop offset=".333" stop-color="#EBEAF8"/><stop offset=".62" stop-color="#D8EDEE"/><stop offset=".823" stop-color="#EFF4F9"/><stop offset="1" stop-color="#EFF8FF"/></radialGradient></defs><symbol id="circle-color-first-shadow"><g fill="none"><g opacity=".3" filter="url(#filter0_f_55_522)"><ellipse cx="86.397" cy="226.5" rx="10.5" ry="63" transform="rotate(90 86.397 226.5)" fill="url(#paint0_linear_55_522)"/></g><circle cx="85.838" cy="85.838" r="70.086" transform="rotate(75 85.838 85.838)" fill="url(#paint1_linear_55_522)"/></g></symbol><symbol id="circle-color-first"><g fill="none"><circle cx="27" cy="27" r="26.87" transform="rotate(120 27 27)" fill="url(#paint0_linear_55_58)"/></g></symbol><symbol id="circle-color"><g fill="none"><circle cx=".314" cy="102.314" r="101.338" transform="rotate(45 .314 102.314)" fill="url(#paint0_linear_55_56)"/></g></symbol><symbol id="car"><g fill="none"><path d="M15.93 26a7 7 0 01-13.86 0H0V2a2 2 0 012-2h28a2 2 0 012 2v4h6l6 8.112V26h-4.07a7 7 0 01-13.86 0H15.93zM28 4H4v16.1A7 7 0 0115.326 22h11.348A7.054 7.054 0 0128 20.1V4zm4 12h8v-.57L35.984 10H32v6zm1 12a3.001 3.001 0 100-6.002A3.001 3.001 0 0033 28zm-21-3a3 3 0 10-6 0 3 3 0 006 0z" fill="#2F80ED"/></g></symbol><symbol id="core"><g fill="none"><path d="M20 36a16 16 0 100-32 16 16 0 000 32zm0 4C8.954 40 0 31.046 0 20S8.954 0 20 0s20 8.954 20 20-8.954 20-20 20zm0-12a8 8 0 100-16.001A8 8 0 0020 28zm0 4a12 12 0 110-24 12 12 0 010 24zm0-8a4 4 0 110-8 4 4 0 010 8z" fill="#2F80ED"/></g></symbol><symbol id="next"><g fill="none"><path d="M20 0v9C8.954 9 0 17.954 0 29c0 .546.02 1.086.064 1.62 2.926-5.548 8.66-9.382 15.31-9.61L16 21h4v9l16-15L20 0zm12 0v5.474L42.16 15l-10.158 9.522L32 30l16-15L32 0zm-8 9.232L30.152 15 24 20.766V17h-8.068l-.694.014c-2.57.086-5.048.62-7.352 1.532A15.968 15.968 0 0120 13h4V9.232z" fill="#2F80ED"/></g></symbol><symbol id="notebook"><g fill="none"><path d="M34 0a2 2 0 012 2v7.514l-4 4V4H4v32h28v-5.516l4-4V38a2 2 0 01-2 2H2a2 2 0 01-2-2V2a2 2 0 012-2h32zm3.556 13.616l2.828 2.828L24.828 32l-2.832-.004.004-2.824 15.556-15.556zM20 20v4H10v-4h10zm6-8v4H10v-4h16z" fill="#2F80ED"/></g></symbol><symbol id="print-layer"><g fill="none"><path d="M36.166 28.4l2.404 1.442a1 1 0 010 1.716L21.03 42.082a2 2 0 01-2.06 0L1.43 31.558a1 1 0 010-1.716L3.834 28.4 20 38.1l16.166-9.7zm0-9.4l2.404 1.442a1 1 0 010 1.716L20 33.3 1.43 22.158a1 1 0 010-1.716L3.834 19 20 28.7 36.166 19zM21.028.618L38.57 11.142a1 1 0 010 1.716L20 24 1.43 12.858a1 1 0 010-1.716L18.97.618a2 2 0 012.06 0h-.002zM20 4.664L7.774 12 20 19.336 32.226 12 20 4.664z" fill="#2F80ED"/></g></symbol><symbol id="calculate-button"><g fill="none"><path d="M2.667 1.333h10.666A.667.667 0 0114 2v12a.666.666 0 01-.667.667H2.667A.667.667 0 012 14V2a.667.667 0 01.667-.667zm.666 1.334v10.666h9.334V2.667H3.333zM4.667 4h6.666v2.667H4.667V4zm0 4H6v1.333H4.667V8zm0 2.667H6V12H4.667v-1.333zM7.333 8h1.334v1.333H7.333V8zm0 2.667h1.334V12H7.333v-1.333zM10 8h1.333v4H10V8z" fill="#fff"/></g></symbol><symbol id="download-photo"><g fill="none"><path d="M12 10.586l4.243 4.242-1.415 1.415L13 14.415V20h-2v-5.587l-1.828 1.83-1.415-1.415L12 10.586zM12 0a7 7 0 016.954 6.194A5.5 5.5 0 0118 16.978v-2.014a3.5 3.5 0 10-1.112-6.91 5 5 0 10-9.777 0 3.5 3.5 0 00-1.292 6.88l.18.03v2.014a5.5 5.5 0 01-.954-10.784A7 7 0 0112 0z" fill="#000"/></g></symbol><symbol id="Ellipse 3"><g fill="none"><circle cx="30" cy="30" r="30" fill="#fff"/></g></symbol><symbol id="facebook"><g fill="none"><path d="M7 11.5h2.5l1-4H7v-2c0-1.03 0-2 2-2h1.5V.14C10.174.097 8.943 0 7.643 0 4.928 0 3 1.657 3 4.7v2.8H0v4h3V20h4v-8.5z" fill="#2C2F36"/></g></symbol><symbol id="heart"><g fill="none"><path d="M5 1.264a3 3 0 014.24 4.232L5 9.742.76 5.496A3 3 0 015 1.264z" fill="#2F80ED"/></g></symbol><symbol id="layer"><g fill="none"><path d="M23.777 19.267l1.603.961a.667.667 0 010 1.144l-11.693 7.016a1.333 1.333 0 01-1.373 0L.62 21.372a.667.667 0 010-1.144l1.603-.961L13 25.733l10.777-6.466zm0-6.267l1.603.961a.667.667 0 010 1.144L13 22.533.62 15.105a.666.666 0 010-1.144L2.223 13 13 19.467 23.777 13zM13.685.745L25.38 7.761a.667.667 0 010 1.144L13 16.333.62 8.905a.667.667 0 010-1.144L12.314.745a1.333 1.333 0 011.373 0h-.002zM13 3.443l-8.15 4.89L13 13.224l8.15-4.89L13 3.442z" fill="#2F80ED"/></g></symbol><symbol id="pencil"><g fill="none"><path d="M2.667 8.667v16H8v-16H2.667zM0 7.333L5.333.667l5.334 6.666v20H0v-20zm21.333 12v-2.666h-4V14h4v-2.667h-2.666V8.667h2.666V6H16v18.667h5.333V22h-2.666v-2.667h2.666zm-6.666-16h8A1.333 1.333 0 0124 4.667V26a1.333 1.333 0 01-1.333 1.333h-8A1.333 1.333 0 0113.333 26V4.667a1.333 1.333 0 011.334-1.334z" fill="#1E88E5"/></g></symbol><symbol id="printer"><g fill="none"><path d="M6 23.333H2A1.333 1.333 0 01.667 22V8.667A1.333 1.333 0 012 7.333h4V2A1.333 1.333 0 017.334.667h13.333A1.333 1.333 0 0122 2v5.333h4a1.333 1.333 0 011.334 1.334V22A1.333 1.333 0 0126 23.333h-4V26a1.333 1.333 0 01-1.333 1.333H7.334A1.333 1.333 0 016 26v-2.667zm0-2.666v-1.334A1.333 1.333 0 017.334 18h13.333A1.333 1.333 0 0122 19.333v1.334h2.667V10H3.334v10.667H6zM8.667 3.333v4h10.667v-4H8.667zm0 17.334v4h10.667v-4H8.667zm-4-9.334h4V14h-4v-2.667z" fill="#2F80ED"/></g></symbol><symbol id="services-work-info"><g fill="none"><circle cx="84" cy="84" r="84" fill="url(#paint0_radial_55_616)"/></g></symbol><symbol id="youtube"><g fill="none"><path d="M19.543 2.498C20 4.28 20 8 20 8s0 3.72-.457 5.502c-.254.985-.997 1.76-1.938 2.022C15.896 16 10 16 10 16s-5.893 0-7.605-.476c-.945-.266-1.687-1.04-1.938-2.022C0 11.72 0 8 0 8s0-3.72.457-5.502c.254-.985.997-1.76 1.938-2.022C4.107 0 10 0 10 0s5.896 0 7.605.476c.945.266 1.687 1.04 1.938 2.022zM8 11.5L14 8 8 4.5v7z" fill="#2C2F36"/></g></symbol></svg>