<svg xmlns="http://www.w3.org/2000/svg" xmlns:xlink="http://www.w3.org/1999/xlink"><defs><linearGradient id="paint0_linear_55_58" x1=".13" y1="27" x2="53.87" y2="27" gradientUnits="userSpaceOnUse"><stop stop-color="#62EFB4"/><stop offset=".491" stop-color="#26ADEA"/><stop offset="1" stop-color="#FF3C7B"/></linearGradient><linearGradient id="paint0_linear_55_56" x1="-101.024" y1="102.314" x2="101.653" y2="102.314" gradientUnits="userSpaceOnUse"><stop stop-color="#62EFB4"/><stop offset=".491" stop-color="#26ADEA"/><stop offset="1" stop-color="#FF3C7B"/></linearGradient><radialGradient id="paint0_radial_55_616" cx="0" cy="0" r="1" gradientUnits="userSpaceOnUse" gradientTransform="matrix(169.56443 76.81937 -172.62136 381.02946 2.003 33.44)"><stop stop-color="#EBF6FF"/><stop offset=".333" stop-color="#EBEAF8"/><stop offset=".62" stop-color="#D8EDEE"/><stop offset=".823" stop-color="#EFF4F9"/><stop offset="1" stop-color="#EFF8FF"/></radialGradient></defs><symbol id="circle-color-first"><g fill="none"><circle cx="27" cy="27" r="26.87" transform="rotate(120 27 27)" fill="url(#paint0_linear_55_58)"/></g></symbol><symbol id="circle-color"><g fill="none"><circle cx=".314" cy="102.314" r="101.338" transform="rotate(45 .314 102.314)" fill="url(#paint0_linear_55_56)"/></g></symbol><symbol id="calculate-button"><g fill="none"><path d="M2.667 1.333h10.666A.667.667 0 0114 2v12a.666.666 0 01-.667.667H2.667A.667.667 0 012 14V2a.667.667 0 01.667-.667zm.666 1.334v10.666h9.334V2.667H3.333zM4.667 4h6.666v2.667H4.667V4zm0 4H6v1.333H4.667V8zm0 2.667H6V12H4.667v-1.333zM7.333 8h1.334v1.333H7.333V8zm0 2.667h1.334V12H7.333v-1.333zM10 8h1.333v4H10V8z" fill="#fff"/></g></symbol><symbol id="download-photo"><g fill="none"><path d="M12 10.586l4.243 4.242-1.415 1.415L13 14.415V20h-2v-5.587l-1.828 1.83-1.415-1.415L12 10.586zM12 0a7 7 0 016.954 6.194A5.5 5.5 0 0118 16.978v-2.014a3.5 3.5 0 10-1.112-6.91 5 5 0 10-9.777 0 3.5 3.5 0 00-1.292 6.88l.18.03v2.014a5.5 5.5 0 01-.954-10.784A7 7 0 0112 0z" fill="#000"/></g></symbol><symbol id="Ellipse 3"><g fill="none"><circle cx="30" cy="30" r="30" fill="#fff"/></g></symbol><symbol id="facebook"><g fill="none"><path d="M7 11.5h2.5l1-4H7v-2c0-1.03 0-2 2-2h1.5V.14C10.174.097 8.943 0 7.643 0 4.928 0 3 1.657 3 4.7v2.8H0v4h3V20h4v-8.5z" fill="#2C2F36"/></g></symbol><symbol id="heart"><g fill="none"><path d="M5 1.264a3 3 0 014.24 4.232L5 9.742.76 5.496A3 3 0 015 1.264z" fill="#2F80ED"/></g></symbol><symbol id="layer"><g fill="none"><path d="M23.777 19.267l1.603.961a.667.667 0 010 1.144l-11.693 7.016a1.333 1.333 0 01-1.373 0L.62 21.372a.667.667 0 010-1.144l1.603-.961L13 25.733l10.777-6.466zm0-6.267l1.603.961a.667.667 0 010 1.144L13 22.533.62 15.105a.666.666 0 010-1.144L2.223 13 13 19.467 23.777 13zM13.685.745L25.38 7.761a.667.667 0 010 1.144L13 16.333.62 8.905a.667.667 0 010-1.144L12.314.745a1.333 1.333 0 011.373 0h-.002zM13 3.443l-8.15 4.89L13 13.224l8.15-4.89L13 3.442z" fill="#2F80ED"/></g></symbol><symbol id="pencil"><g fill="none"><path d="M2.667 8.667v16H8v-16H2.667zM0 7.333L5.333.667l5.334 6.666v20H0v-20zm21.333 12v-2.666h-4V14h4v-2.667h-2.666V8.667h2.666V6H16v18.667h5.333V22h-2.666v-2.667h2.666zm-6.666-16h8A1.333 1.333 0 0124 4.667V26a1.333 1.333 0 01-1.333 1.333h-8A1.333 1.333 0 0113.333 26V4.667a1.333 1.333 0 011.334-1.334z" fill="#1E88E5"/></g></symbol><symbol id="printer"><g fill="none"><path d="M6 23.333H2A1.333 1.333 0 01.667 22V8.667A1.333 1.333 0 012 7.333h4V2A1.333 1.333 0 017.334.667h13.333A1.333 1.333 0 0122 2v5.333h4a1.333 1.333 0 011.334 1.334V22A1.333 1.333 0 0126 23.333h-4V26a1.333 1.333 0 01-1.333 1.333H7.334A1.333 1.333 0 016 26v-2.667zm0-2.666v-1.334A1.333 1.333 0 017.334 18h13.333A1.333 1.333 0 0122 19.333v1.334h2.667V10H3.334v10.667H6zM8.667 3.333v4h10.667v-4H8.667zm0 17.334v4h10.667v-4H8.667zm-4-9.334h4V14h-4v-2.667z" fill="#2F80ED"/></g></symbol><symbol id="services-work-info"><g fill="none"><circle cx="84" cy="84" r="84" fill="url(#paint0_radial_55_616)"/></g></symbol><symbol id="youtube"><g fill="none"><path d="M19.543 2.498C20 4.28 20 8 20 8s0 3.72-.457 5.502c-.254.985-.997 1.76-1.938 2.022C15.896 16 10 16 10 16s-5.893 0-7.605-.476c-.945-.266-1.687-1.04-1.938-2.022C0 11.72 0 8 0 8s0-3.72.457-5.502c.254-.985.997-1.76 1.938-2.022C4.107 0 10 0 10 0s5.896 0 7.605.476c.945.266 1.687 1.04 1.938 2.022zM8 11.5L14 8 8 4.5v7z" fill="#2C2F36"/></g></symbol></svg>